<svg xmlns="http://www.w3.org/2000/svg" xmlns:xlink="http://www.w3.org/1999/xlink" viewBox="0 0 97.048 69.826"><defs><style>.a,.b{fill:#A3A3A3;}.b{stroke:rgba(0,0,0,0);stroke-miterlimit:10;}.c{filter:url(#a);}</style><filter id="a" x="0" y="0" width="97.048" height="69.826" filterUnits="userSpaceOnUse"><feOffset input="SourceAlpha"/><feGaussianBlur stdDeviation="5" result="b"/><feFlood flood-color="#A3A3A3" flood-opacity="0.478"/><feComposite operator="in" in2="b"/><feComposite in="SourceGraphic"/></filter></defs><g transform="translate(-244.082 -208.581)"><path class="a" d="M363.886,376.9c-.284-.156-.563-.327-.829-.507l-4.482-3.028a8.535,8.535,0,0,0-4.808-1.472H345.52a8.6,8.6,0,0,0-6.04,2.5,10.58,10.58,0,0,1-2.6,1.9,2.154,2.154,0,0,0,.993,4.065h2.79c.028,0,.056,0,.083,0a1.069,1.069,0,0,0-.074-2.137h-2.8a.016.016,0,0,1-.015-.009.016.016,0,0,1,.008-.022,12.713,12.713,0,0,0,3.121-2.283,6.453,6.453,0,0,1,4.535-1.88h1.468v4.195h-1.845c-.028,0-.056,0-.083,0a1.069,1.069,0,0,0,.038,2.137h18.61a1.405,1.405,0,0,0,1.4-1.4A2.355,2.355,0,0,0,363.886,376.9Zm-1.933,1.326H349.129v-4.195h4.646a6.4,6.4,0,0,1,3.6,1.105l4.482,3.028Z" transform="translate(-67.362 -130.769)"/><path class="a" d="M435.681,455.974h-1.707a.906.906,0,0,0,.032,1.811h1.736a.906.906,0,0,0-.061-1.811Z" transform="translate(-153.517 -205.158)"/><path class="a" d="M637.834,505.646a1.193,1.193,0,0,0,1.191-1.192,1.18,1.18,0,0,0-.348-.841,1.193,1.193,0,0,0-.841-.35h0a1.191,1.191,0,0,0,0,2.382Z" transform="translate(-333.589 -246.996)"/><g class="c" transform="matrix(1, 0, 0, 1, 244.08, 208.58)"><path class="b" d="M8.23,38.623A5.423,5.423,0,0,1,4.4,34.617l-2.84-1.262A2.632,2.632,0,0,1,0,30.953V23.589a3.963,3.963,0,0,1,3.12-3.843l1.093-.229a9.553,9.553,0,0,0,4.81-2.6,11.942,11.942,0,0,1,8.393-3.479h9.273a11.849,11.849,0,0,1,6.667,2.045l5.029,3.4a10.344,10.344,0,0,0,3.5,1.664l.527.105v-.046l2.328.493v.016l.45.089.155.025,1.9.4.023-.012,1.559.311a6.673,6.673,0,0,1,4.4,3.089l.241.4a4.99,4.99,0,0,1,.714,2.567v3.944a3.233,3.233,0,0,1-3.222,3.223H49.811a5.445,5.445,0,0,1-10.3,0H14.854A5.444,5.444,0,0,1,8.23,38.623Zm34.225-7.452c-.039.039-.078.081-.118.126l-.029.034-.019.023-.061.071-.061.079-.032.045c-.024.032-.045.062-.063.09l-.018.027a3.12,3.12,0,1,0,5.219,0l-.012-.018c-.02-.03-.043-.063-.072-.1-.009-.013-.02-.028-.029-.039-.021-.028-.042-.056-.067-.087l-.056-.067-.015-.016c-.015-.019-.026-.03-.036-.042-.04-.046-.08-.087-.118-.125a3.115,3.115,0,0,0-2.2-.914h-.014A3.116,3.116,0,0,0,42.455,31.171ZM7.743,30.951l-.01.008c-.03.025-.06.05-.1.082l-.028.024-.091.087-.034.033c-.032.032-.068.07-.1.108l-.049.058c-.022.025-.04.046-.059.07l-.043.056-.056.074-.031.043-.015.022-.046.068-.046.076L7,31.818l-.049.088-.024.046c-.022.041-.037.074-.051.1l-.011.025a3.156,3.156,0,0,0,.631,3.5,3.12,3.12,0,0,0,4.815-3.916l-.019-.03c-.018-.027-.04-.058-.065-.092l-.03-.04-.065-.084c-.017-.021-.034-.041-.052-.061l-.024-.029c-.011-.013-.021-.026-.031-.037-.04-.044-.08-.086-.117-.124s-.077-.074-.116-.11l-.014-.012c-.035-.031-.071-.062-.107-.091a3.127,3.127,0,0,0-3.932-.006Zm6-1.234.007.007.188.211,0,0,.011.013a5.434,5.434,0,0,1,1.186,2.871H39.239a5.438,5.438,0,0,1,1.023-2.659l-.006,0,.182-.223.027-.033.112-.138.005,0,.029-.035c.055-.06.106-.114.169-.178l.017-.017.01-.011a5.393,5.393,0,0,1,2.782-1.491,5.549,5.549,0,0,1,2.4.058,5.385,5.385,0,0,1,1.352.54,5.474,5.474,0,0,1,1.17.893l.02.02.006.006c.061.062.114.117.162.171l.04.045c.055.062.1.116.142.165l.014.018a5.426,5.426,0,0,1,1.186,2.871h.873a.9.9,0,0,0,.9-.9V27.982a2.652,2.652,0,0,0-.381-1.366l-.24-.4a4.343,4.343,0,0,0-2.858-2.008l-6.939-1.38a12.5,12.5,0,0,1-4.353-2.018l-5.029-3.4a9.535,9.535,0,0,0-5.366-1.645H17.42a9.6,9.6,0,0,0-6.753,2.8A11.88,11.88,0,0,1,4.69,21.794l-1.091.23a1.615,1.615,0,0,0-1.272,1.567v7.362a.3.3,0,0,0,.178.275l1.907.848a5.4,5.4,0,0,1,.462-1.22l-.007,0,.147-.248c.013-.022.026-.043.039-.064L5.14,30.4l0,0c.05-.079.1-.154.156-.228l.036-.048c.039-.052.079-.1.117-.151l.049-.06q.06-.072.121-.142l.048-.053c.068-.075.124-.134.179-.189a5.477,5.477,0,0,1,3.789-1.593h.074a5.464,5.464,0,0,1,3.842,1.594l.017.016.006,0Zm40.583,7.975-.263-.074,0-.014a1.214,1.214,0,0,1,.485-2.326,1.219,1.219,0,0,1,.384.062,3.669,3.669,0,0,0,1.034.15A3.717,3.717,0,0,0,56,28.057a.337.337,0,0,1-.042,0,1.214,1.214,0,0,1,0-2.427h.022A6.145,6.145,0,0,1,61.7,29.575h1.927V26.085h-.759A3.192,3.192,0,0,1,59.68,22.9V20.929a1.214,1.214,0,0,1,1.213-1.213h2.446A2.727,2.727,0,0,0,60.893,18.2H50.274v.759a1.212,1.212,0,0,1-.912,1.173l-.062.016-.6-.114-.027.014L48.443,20l-.047-.031a1.209,1.209,0,0,1-.547-1.011V2.424H12.812v9.29h-.007v.969a1.209,1.209,0,0,1-2.418,0V2.2a2.2,2.2,0,0,1,2.2-2.2H48.076a2.2,2.2,0,0,1,2.2,2.2V3.943h6.674a4.181,4.181,0,0,1,4.17,4.17V9.1a1.22,1.22,0,0,1-.677,1.087l1.42,5.679a5.135,5.135,0,0,1,4.186,5.063v9.859A1.212,1.212,0,0,1,64.835,32H62.1a6.144,6.144,0,0,1-7.778,5.693ZM62.105,22.9a.763.763,0,0,0,.759.76h.759v-1.52H62.105ZM50.274,15.774h9.065l-1.366-5.462h-7.7Zm0-7.887h8.4a1.751,1.751,0,0,0-1.73-1.519H50.274Z" transform="translate(15.5 15.5)"/></g><path class="a" d="M334.621,503.262h0a1.191,1.191,0,1,0,.844.349A1.184,1.184,0,0,0,334.618,503.262Z" transform="translate(-65.332 -246.995)"/></g></svg>